<?xml version="1.0" standalone="no"?>
<!DOCTYPE svg PUBLIC "-//W3C//DTD SVG 20010904//EN"
 "http://www.w3.org/TR/2001/REC-SVG-20010904/DTD/svg10.dtd">
<svg version="1.0" xmlns="http://www.w3.org/2000/svg"
 width="1024.000000pt" height="1024.000000pt" viewBox="0 0 1024.000000 1024.000000"
 preserveAspectRatio="xMidYMid meet">
<metadata>
Created by potrace 1.11, written by Peter Selinger 2001-2013
</metadata>
<g transform="translate(0.000000,1024.000000) scale(0.100000,-0.100000)"
fill="#000000" stroke="none">
<path d="M4847 9504 c-1 -1 -67 -5 -147 -9 -196 -9 -194 -9 -430 -41 -53 -7
-149 -25 -235 -45 -71 -16 -324 -88 -343 -99 -10 -4 -46 -18 -82 -30 -164 -56
-572 -244 -773 -356 -315 -176 -589 -388 -902 -700 -302 -299 -507 -560 -725
-924 -63 -105 -228 -424 -264 -510 -138 -333 -231 -622 -270 -840 -28 -153
-27 -149 -41 -275 -3 -33 -8 -76 -11 -95 -25 -203 -25 -1031 1 -1113 2 -7 6
-44 10 -83 3 -39 7 -80 9 -91 3 -11 7 -44 11 -74 40 -322 199 -790 417 -1221
194 -387 306 -562 530 -836 655 -800 1660 -1400 2673 -1596 283 -55 357 -61
715 -61 261 0 426 6 555 20 22 2 67 7 100 10 57 6 144 17 245 31 94 12 372 75
503 114 363 106 735 272 1052 468 838 520 1498 1310 1859 2226 60 151 140 402
161 503 2 10 12 59 24 108 11 50 22 106 26 125 3 19 10 58 15 85 5 28 12 72
15 98 4 27 8 58 10 69 2 10 7 49 10 86 4 37 8 83 10 102 18 149 24 531 11 740
-15 266 -52 530 -101 735 -9 39 -19 81 -21 95 -3 14 -7 32 -10 40 -3 8 -8 24
-10 36 -9 46 -92 305 -119 369 -156 375 -260 583 -436 865 -370 597 -900 1109
-1518 1469 -110 64 -217 123 -231 126 -3 1 -66 31 -140 67 -170 82 -343 152
-535 216 -121 41 -279 91 -305 97 -3 0 -54 13 -115 28 -115 27 -137 32 -220
43 -27 3 -58 8 -68 10 -48 9 -314 17 -595 18 -172 1 -314 1 -315 0z m628 -528
c76 -7 168 -17 197 -21 13 -2 46 -6 73 -10 326 -44 719 -173 1115 -368 805
-396 1411 -998 1807 -1793 99 -200 202 -448 228 -554 3 -8 20 -71 39 -140 33
-120 79 -336 91 -430 3 -25 8 -58 11 -74 3 -15 7 -51 9 -80 3 -28 8 -80 12
-116 16 -135 8 -721 -12 -850 -2 -14 -6 -56 -10 -95 -4 -38 -8 -72 -10 -75 -1
-3 -6 -32 -10 -65 -21 -194 -106 -494 -208 -735 -139 -331 -252 -543 -428
-805 -324 -481 -785 -909 -1304 -1210 -93 -54 -387 -205 -398 -205 -3 0 -35
-13 -70 -30 -36 -16 -68 -30 -72 -30 -4 0 -21 -6 -38 -14 -107 -48 -383 -134
-482 -150 -16 -2 -73 -11 -125 -20 -103 -16 -148 -22 -255 -32 -38 -3 -83 -8
-100 -10 -79 -9 -332 -18 -530 -18 -314 0 -526 15 -718 50 -62 11 -306 77
-407 109 -287 93 -617 246 -863 400 -458 286 -903 711 -1219 1162 -227 324
-415 711 -518 1068 -18 61 -34 117 -35 125 -2 8 -15 67 -30 130 -14 63 -27
126 -29 140 -3 14 -8 45 -12 70 -8 50 -8 52 -18 130 -13 104 -15 115 -23 210
-10 119 -10 586 0 700 39 454 141 877 295 1225 54 121 205 418 222 435 3 3 11
15 17 28 32 55 39 67 55 86 10 11 18 24 18 28 0 8 98 157 110 168 3 3 28 37
55 75 27 39 51 72 54 75 4 3 32 37 63 76 131 164 383 420 548 556 343 283 729
505 1145 659 76 28 354 112 409 124 14 3 38 7 54 10 15 3 43 10 62 15 39 10
257 46 335 55 28 3 59 8 70 10 11 2 67 7 125 11 58 3 106 7 107 8 6 5 541 -2
598 -8z"/>
<path d="M4888 7835 c-2 -2 -32 -6 -68 -10 -36 -3 -81 -8 -100 -10 -19 -2 -60
-7 -90 -10 -93 -10 -269 -43 -395 -74 -631 -156 -1211 -511 -1586 -972 -104
-127 -240 -361 -302 -519 -68 -173 -105 -375 -101 -560 2 -121 4 -134 30 -212
16 -49 38 -67 81 -66 10 0 74 -3 143 -6 693 -32 4612 -40 5145 -10 63 3 109
11 123 20 42 28 56 92 57 269 0 158 -14 280 -46 399 -6 23 -12 48 -14 56 -10
50 -73 210 -120 302 -201 399 -560 744 -1028 988 -95 49 -150 75 -302 141
-163 71 -508 165 -745 204 -19 3 -60 10 -90 15 -30 5 -75 12 -100 15 -25 3
-56 8 -70 10 -56 8 -160 18 -240 22 -47 3 -106 6 -132 8 -26 2 -48 2 -50 0z"/>
<path d="M3109 4976 c-2 -2 -83 -6 -179 -10 -96 -3 -188 -8 -205 -10 -16 -2
-61 -7 -100 -11 -183 -19 -324 -85 -367 -174 -22 -45 -24 -83 -18 -302 6 -227
48 -341 134 -368 142 -46 567 -55 2646 -54 2026 0 2639 11 2781 49 25 7 81
101 96 163 16 65 23 323 11 442 -12 129 -58 210 -127 229 -38 10 -160 25 -296
36 -82 7 -4368 17 -4376 10z"/>
<path d="M2907 3704 c-1 -1 -74 -4 -162 -8 -88 -3 -189 -13 -224 -21 -133 -32
-244 -139 -264 -255 -49 -284 -5 -533 108 -610 94 -64 198 -70 1155 -70 558 1
756 2 1750 15 992 13 2104 37 2255 50 28 2 86 7 130 10 152 10 164 14 179 50
27 64 37 144 42 335 6 232 -1 270 -58 335 -64 73 -148 100 -378 120 -131 12
-367 14 -1402 15 -1038 0 -1058 0 -1058 19 0 19 -19 19 -1036 18 -569 -1
-1036 -2 -1037 -3z"/>
</g>
</svg>
